<svg width="31" height="30" viewBox="0 0 31 30" fill="none" xmlns="http://www.w3.org/2000/svg">
<path d="M7.65023 0C7.24919 0 6.3169 0.132813 6.11638 1.46615L5.51742 8.66667H1.11638C0.650232 8.66667 0.184086 8.93229 0.0512743 9.39844C-0.0841423 9.86719 0.0486697 10.401 0.449712 10.6667L0.51742 10.7318C1.38461 11.1823 2.98096 11.7995 5.3169 12.3229V13.0156C4.19971 13.5599 3.3169 14.5755 3.3169 15.9349C3.3169 17.2682 4.15805 18.3984 5.3169 18.9453V21.3333C5.3169 22.0911 5.62679 22.9193 6.12679 23.8333C6.6268 24.7448 7.34034 25.7188 8.22315 26.625C9.36898 27.7969 10.8169 28.8594 12.4653 29.4688C13.0252 29.8047 13.6815 30 14.382 30H16.2518C16.9758 30 17.6528 29.7917 18.2232 29.4349C19.8534 28.8047 21.283 27.7214 22.4133 26.5443C23.2961 25.6276 24.007 24.651 24.5044 23.75C25.0044 22.8516 25.3169 22.0625 25.3169 21.3333V19.0495C26.6008 18.5573 27.5851 17.3984 27.5851 15.9349C27.5851 14.4688 26.6008 13.3099 25.3169 12.8203V12.3932C27.6763 11.8698 29.2596 11.2292 30.1841 10.7318C30.5851 10.4661 30.7179 9.93229 30.5851 9.46615C30.4497 9 29.9836 8.66667 29.4497 8.66667H25.382L24.783 1.40104C24.6502 0.132813 23.7179 0 23.3169 0H7.65023ZM6.91846 6H23.7153L23.9836 8.66667H6.65023L6.91846 6ZM6.65023 12.5833C8.99138 13.013 11.9107 13.3333 15.5174 13.3333C18.981 13.3333 21.7518 13.0469 23.9836 12.6458V13.8073L24.5148 13.9193C25.4992 14.1276 26.2518 14.9349 26.2518 15.9349C26.2518 16.9349 25.4992 17.7396 24.5148 17.9479L23.9836 18.0599V21.3333C23.9836 21.6042 23.7778 22.3151 23.3403 23.1042C22.9028 23.8906 22.2544 24.7891 21.4523 25.6224C20.9888 26.1042 20.4705 26.5573 19.9159 26.9661C19.9575 26.7396 19.9836 26.5052 19.9836 26.2682V23.3333C19.9836 21.8672 18.783 20.6667 17.3169 20.6667H13.3169C11.8508 20.6667 10.6502 21.8672 10.6502 23.3333V26.2682C10.6502 26.526 10.6763 26.7786 10.7258 27.0208C10.1685 26.6198 9.64502 26.1719 9.17888 25.6927C8.3794 24.8724 7.73096 23.9844 7.29607 23.1901C6.85857 22.3958 6.65023 21.6745 6.65023 21.3333V18.0339L6.17107 17.8932C5.3195 17.6432 4.65023 16.8125 4.65023 15.9349C4.65023 14.9714 5.29607 14.2292 6.17107 13.9714L6.65023 13.8333V12.5833ZM6.65023 14L7.65023 17.5339C7.85075 18.2005 8.44971 18.6667 9.18409 18.6667H12.1841C12.8508 18.6667 13.5174 18.2656 13.783 17.6667C13.783 17.6667 14.4497 16.401 14.9185 15.5339C15.1164 15.1328 15.6502 15.2005 15.8508 15.5339L16.9185 17.6667C17.2518 18.2656 17.8508 18.6667 18.5174 18.6667H21.5174C22.2518 18.6667 22.8508 18.2005 23.0487 17.5339L23.9836 14H6.65023ZM13.3169 23.3333H17.3169C18.0513 23.3333 18.6502 23.9323 18.6502 24.6667V25.3333L16.6502 27.3333V26C16.6502 25.2656 16.0513 24.6667 15.3169 24.6667C14.5825 24.6667 13.9836 25.2656 13.9836 26V27.3333L11.9836 25.3333V24.6667C11.9836 23.9323 12.5825 23.3333 13.3169 23.3333Z" fill="white"/>
</svg>
