<svg width="20" height="30" viewBox="0 0 20 30" fill="none" xmlns="http://www.w3.org/2000/svg">
<path d="M4.5 0C3.30653 0 2.16193 0.474106 1.31802 1.31802C0.474106 2.16193 0 3.30653 0 4.5C0 5.69347 0.474106 6.83807 1.31802 7.68198C2.16193 8.52589 3.30653 9 4.5 9H15C16.1935 9 17.3381 8.52589 18.182 7.68198C19.0259 6.83807 19.5 5.69347 19.5 4.5C19.5 3.30653 19.0259 2.16193 18.182 1.31802C17.3381 0.474106 16.1935 0 15 0H4.5Z" fill="white"/>
<path d="M15 10.5C13.8065 10.5 12.6619 10.9741 11.818 11.818C10.9741 12.6619 10.5 13.8065 10.5 15C10.5 16.1935 10.9741 17.3381 11.818 18.182C12.6619 19.0259 13.8065 19.5 15 19.5C16.1935 19.5 17.3381 19.0259 18.182 18.182C19.0259 17.3381 19.5 16.1935 19.5 15C19.5 13.8065 19.0259 12.6619 18.182 11.818C17.3381 10.9741 16.1935 10.5 15 10.5V10.5Z" fill="white"/>
<path d="M0 15C0 13.8065 0.474106 12.6619 1.31802 11.818C2.16193 10.9741 3.30653 10.5 4.5 10.5H9V19.5H4.5C3.30653 19.5 2.16193 19.0259 1.31802 18.182C0.474106 17.3381 0 16.1935 0 15Z" fill="white"/>
<path d="M4.5 21C3.60999 21 2.73996 21.2639 1.99994 21.7584C1.25991 22.2529 0.683138 22.9557 0.342544 23.7779C0.00194979 24.6002 -0.0871652 25.505 0.0864683 26.3779C0.260102 27.2508 0.688685 28.0526 1.31802 28.682C1.94736 29.3113 2.74918 29.7399 3.6221 29.9135C4.49501 30.0872 5.39981 29.9981 6.22208 29.6575C7.04434 29.3169 7.74715 28.7401 8.24161 28.0001C8.73608 27.26 9 26.39 9 25.5V21H4.5Z" fill="white"/>
</svg>
