<svg width="31" height="30" viewBox="0 0 31 30" fill="none" xmlns="http://www.w3.org/2000/svg">
<path d="M15.4839 0C6.77419 0 0 6.77419 0 15.4839C0 25.6452 9.19355 30 10.6452 30C11.6129 30 11.6129 29.5161 11.6129 29.0323V26.6129C8.22581 27.5806 6.77419 25.6452 6.29032 24.1935C6.29032 24.1935 6.29032 23.7097 5.32258 22.7419C4.83871 22.2581 2.90323 21.2903 4.83871 21.2903C6.29032 21.2903 7.25806 23.2258 7.25806 23.2258C8.70968 25.1613 10.6452 24.6774 11.6129 24.1935C11.6129 23.2258 12.5806 22.2581 12.5806 22.2581C8.70968 21.7742 5.80645 20.3226 5.80645 15C5.80645 13.0645 6.29032 11.6129 7.25806 10.6452C7.25806 10.6452 6.29032 8.70968 7.25806 6.29032C7.25806 6.29032 9.67742 6.29032 11.6129 8.22581C13.0645 7.25806 17.9032 7.25806 19.3548 8.22581C21.2903 6.29032 23.7097 6.29032 23.7097 6.29032C24.6774 9.67742 23.7097 10.6452 23.7097 10.6452C24.6774 11.6129 25.1613 13.0645 25.1613 15C25.1613 20.3226 21.7742 21.7742 18.3871 22.2581C18.871 22.7419 19.3548 23.7097 19.3548 25.1613V29.0323C19.3548 29.5161 19.3548 30 20.3226 30C21.7742 30 30.9677 25.6452 30.9677 15.4839C30.9677 6.77419 24.1935 0 15.4839 0Z" fill="white"/>
</svg>
